<?xml version="1.0" encoding="iso-8859-1"?>
<!-- Generator: Adobe Illustrator 16.0.0, SVG Export Plug-In . SVG Version: 6.00 Build 0)  -->
<!DOCTYPE svg PUBLIC "-//W3C//DTD SVG 1.1//EN" "http://www.w3.org/Graphics/SVG/1.1/DTD/svg11.dtd">
<svg version="1.1" id="Layer_1" xmlns="http://www.w3.org/2000/svg" xmlns:xlink="http://www.w3.org/1999/xlink" x="0px" y="0px"
	 width="100px" height="100px" viewBox="0 0 100 100" style="enable-background:new 0 0 100 100;" xml:space="preserve">
<g>
	<g>
		<path d="M-1314.744-638.218c17.722-1.802,35.188-4.72,52.226-9.953c16.276-5,32.108-11.855,47.315-19.477
			c26.328-13.193,50.51-30.274,74.368-47.413c5.335-3.156,9.58-7.401,12.736-12.736c4.803-8.199,6.099-18.192,3.578-27.355
			c-4.313-15.684-18.364-25.436-34.231-26.062c-13.552-0.535-27.353,1.8-40.616,4.246c-14.009,2.583-27.803,6.412-41.244,11.111
			c-30.859,10.79-64.114,26.117-82.286,54.722c-14.496,22.819,4.415,53.684,30.653,53.417c38.772-0.394,72.17-23.319,109.941-28.519
			c-3.146,0.422-6.292,0.845-9.438,1.268c6.013-0.746,12.011-0.947,18.031-0.168c-3.146-0.423-6.292-0.846-9.438-1.268
			c3.771,0.576,7.388,1.526,10.924,2.965c-2.826-1.193-5.653-2.386-8.48-3.579c0.346,0.152,0.689,0.304,1.035,0.456
			c-5.438-13.364-10.877-26.727-16.314-40.091c-0.484,1.6-1.035,3.162-1.664,4.71c1.193-2.827,2.386-5.653,3.578-8.48
			c-1.555,3.594-3.511,6.914-5.863,10.042c1.85-2.395,3.7-4.79,5.551-7.185c-3.277,4.183-7.098,7.792-11.293,11.042
			c2.396-1.85,4.79-3.701,7.186-5.551c-9.922,7.477-21.251,12.745-32.635,17.58c2.827-1.193,5.653-2.386,8.48-3.579
			c-16.18,6.821-32.745,12.85-48.482,20.674c-17.179,8.541-31.804,20.487-42.773,36.262c-9.019,12.969-5.064,32.404,5.551,43.02
			c11.516,11.515,28.967,13.245,43.02,5.551c40.932-22.411,75.423-55.117,112.137-83.529c-2.395,1.851-4.789,3.701-7.185,5.551
			c21.619-16.662,44.235-32.444,69.449-43.197c-2.827,1.193-5.653,2.386-8.48,3.579c12.402-5.178,25.259-8.986,38.589-10.819
			c-11.514-19.778-23.026-39.556-34.54-59.334c-4.165,3.593-8.425,7.063-12.778,10.426c2.396-1.85,4.79-3.701,7.186-5.551
			c-55.543,42.424-123.708,64.121-179.213,106.567c-5.334,3.156-9.579,7.401-12.735,12.736c-4.803,8.199-6.099,18.192-3.579,27.355
			c5.059,18.388,25.116,30.271,43.67,24.794c35.009-10.333,66.67-29.114,100.143-43.244c-2.827,1.193-5.654,2.386-8.48,3.579
			c15.431-6.427,31.278-11.727,47.831-14.333c-14.557-14.557-29.113-29.113-43.669-43.669c-0.498,1.446-1.036,2.869-1.616,4.284
			c1.192-2.827,2.386-5.653,3.578-8.48c-2.923,6.772-6.843,12.958-11.321,18.803c1.851-2.395,3.701-4.79,5.551-7.185
			c-10.394,13.255-23.172,24.395-36.422,34.703c2.395-1.851,4.789-3.701,7.185-5.551c-23.178,17.882-48.612,32.544-71.701,50.506
			c2.396-1.85,4.79-3.701,7.185-5.551c-20.573,15.895-42.272,30.683-66.115,41.248c14.34,18.585,28.681,37.17,43.021,55.756
			c21.559-25.093,45.405-48.423,71.577-68.688c-2.396,1.85-4.79,3.701-7.185,5.551c17.061-13.101,35.219-24.942,55.02-33.483
			c-2.827,1.193-5.653,2.386-8.48,3.579c10.597-4.469,21.564-7.907,32.973-9.521c-3.146,0.422-6.292,0.845-9.438,1.268
			c3.299-0.423,6.598-0.696,9.922-0.802c-5.973-22.051-11.945-44.102-17.917-66.153c-23.225,15.383-48.36,27.397-73.971,38.224
			c2.826-1.193,5.653-2.386,8.48-3.579c-41.798,17.578-84.915,32.455-125,53.851c-17.053,9.102-22.228,32.369-12.736,48.571
			c4.648,7.936,12.343,13.874,21.216,16.314c10.099,2.777,18.142,0.362,27.354-3.579c2.337-1,4.676-1.994,7.018-2.982
			c-2.827,1.193-5.653,2.386-8.48,3.579c30.226-12.718,60.878-24.377,91.562-35.932c15.731-5.924,31.471-11.824,47.173-17.824
			c16.022-6.122,31.464-13.321,47.221-20.042c-2.827,1.193-5.653,2.386-8.48,3.579c10.818-4.542,21.914-8.59,33.566-10.319
			c-3.146,0.422-6.291,0.845-9.438,1.268c3.813-0.485,7.589-0.69,11.43-0.476c-8.367-20.201-16.735-40.401-25.103-60.602
			c-9.732,12.225-21.168,22.804-33.514,32.342c2.395-1.85,4.79-3.701,7.185-5.551c-39.25,29.973-85.814,49.934-120.663,85.703
			c-11.142,11.437-13.697,29.113-5.551,43.021c10.223,17.451,31.29,21.443,48.57,12.735c24.906-12.551,47.948-28.319,71.751-42.769
			c16.927-10.275,33.729-22.02,51.987-29.789c-2.827,1.193-5.654,2.386-8.48,3.579c4.355-1.781,8.782-3.263,13.449-3.953
			c-3.146,0.422-6.291,0.845-9.437,1.268c1.979-0.227,3.909-0.292,5.895-0.114c-3.146-0.422-6.292-0.845-9.438-1.268
			c0.304,0.043,0.607,0.085,0.911,0.128c-7.072-17.383-14.144-34.766-21.216-52.149c-4.109,7.565-8.886,14.685-14.144,21.498
			c1.851-2.395,3.701-4.79,5.552-7.185c-16.491,21.008-36.842,38.534-57.478,55.324c-22.17,18.038-44.243,36.277-66.841,53.774
			c2.395-1.851,4.79-3.7,7.185-5.551c-25.267,19.49-51.399,37.888-79.027,53.894c14.34,18.585,28.68,37.171,43.02,55.756
			c9.543-10.228,20.059-19.433,31.105-27.998c-2.396,1.851-4.79,3.7-7.186,5.551c20.968-16.098,43.596-29.852,66.669-42.691
			c22.732-12.65,45.859-25.45,69.761-35.76c-2.827,1.192-5.653,2.386-8.48,3.579c10.985-4.633,22.253-8.326,34.088-9.999
			c-3.146,0.423-6.291,0.846-9.438,1.269c1.788-0.218,3.572-0.399,5.367-0.546c-3.146-23.244-6.291-46.488-9.438-69.732
			c-23.808,6.771-48.1,11.968-72.633,15.272c3.146-0.423,6.291-0.846,9.438-1.268c-21.74,2.846-43.962,4.385-65.784,1.519
			c3.146,0.423,6.292,0.846,9.438,1.269c-7.002-0.988-13.891-2.462-20.575-4.792c8.265,14.557,16.529,29.113,24.795,43.669
			c0.354-1.18,0.758-2.306,1.23-3.444c-1.193,2.827-2.387,5.654-3.579,8.48c1.075-2.275,2.364-4.337,3.891-6.336
			c-1.851,2.395-3.7,4.789-5.551,7.185c2.241-2.726,4.747-5.102,7.499-7.306c-2.396,1.85-4.79,3.7-7.186,5.551
			c5.815-4.438,12.229-7.854,18.954-10.693c-2.827,1.192-5.653,2.386-8.48,3.578c3.423-1.396,6.89-2.638,10.425-3.719
			c-14.979-11.411-29.958-22.821-44.938-34.232c0.193,3.381,0.025,6.718-0.422,10.074c0.423-3.146,0.846-6.292,1.269-9.438
			c-1.012,6.651-3.056,13.015-5.637,19.214c1.192-2.827,2.386-5.653,3.579-8.48c-7.881,18.368-19.772,34.79-31.899,50.551
			c1.851-2.395,3.7-4.79,5.551-7.185c-17.146,22.18-36.61,43.084-51.59,66.838c-8.475,13.44-5.443,32.025,5.551,43.021
			c11.109,11.108,29.441,13.857,43.021,5.551c50.955-31.173,97.228-70.508,152.661-93.916c-2.827,1.192-5.653,2.386-8.48,3.578
			c10.393-4.318,20.992-8.041,31.83-11.079c-9.118-21.628-18.236-43.256-27.354-64.885c-21.491,15.528-42.869,31.21-64.309,46.81
			c-11.438,8.323-22.952,16.502-34.075,25.251c-8.553,6.728-16.768,13.871-25.376,20.53c2.395-1.851,4.79-3.701,7.185-5.551
			c-8.486,6.487-17.307,12.615-27.161,16.846c2.826-1.192,5.653-2.386,8.48-3.578c-2.543,1.027-5.105,1.906-7.757,2.609
			c13.363,17.383,26.728,34.766,40.091,52.149c6.343-11.334,13.555-22.114,21.475-32.405c-1.851,2.395-3.701,4.79-5.552,7.185
			c18.989-24.408,41.63-45.641,66.033-64.554c-2.396,1.851-4.79,3.701-7.185,5.551c41.259-31.759,87.188-56.992,134.48-78.532
			c-16.189-16.19-32.38-32.38-48.57-48.571c-1.982,2.675-3.989,5.331-6.02,7.969c1.85-2.395,3.7-4.79,5.551-7.185
			c-49.221,63.48-111.669,115.619-172.472,167.522c-11.999,10.243-13.136,30.072-5.551,43.021
			c9.205,15.714,32.648,23.789,48.571,12.735c47.09-32.692,85.347-75.865,130.575-110.833c-2.396,1.85-4.79,3.7-7.185,5.551
			c17.637-13.533,36.356-25.724,56.894-34.393c-2.827,1.192-5.653,2.386-8.48,3.578c5.314-2.192,10.707-4.14,16.206-5.817
			c-14.557-8.265-29.113-16.53-43.67-24.794c0.26,1.068,0.464,2.133,0.619,3.221c-0.423-3.146-0.846-6.292-1.269-9.437
			c0.317,2.865,0.229,5.685-0.154,8.54c0.423-3.146,0.846-6.292,1.269-9.437c-0.703,4.461-2.062,8.719-3.785,12.886
			c1.192-2.827,2.385-5.653,3.578-8.48c-4.422,10.285-10.744,19.604-17.519,28.468c1.851-2.395,3.701-4.79,5.551-7.185
			c-11.821,15.301-25.243,29.253-38.737,43.07c-13.864,14.195-27.082,28.951-40.296,43.754
			c-34.468,38.61-69.18,76.492-110.215,108.319c2.395-1.851,4.79-3.701,7.185-5.551c-0.965,0.745-1.932,1.488-2.9,2.228
			c17.383,13.363,34.766,26.728,52.148,40.091c2.285-11.663,2.755-23.503-3.806-34.063c-5.409-8.707-12.639-13.466-22.124-17.042
			c-3.414-1.286-7.244-1.131-10.855-1.581c3.146,0.423,6.292,0.846,9.438,1.269c-0.059-0.012-0.118-0.023-0.177-0.035
			c2.826,1.193,5.653,2.386,8.479,3.579c-0.039-0.018-0.078-0.035-0.117-0.054c4.245,4.246,8.49,8.491,12.735,12.736
			c-0.016-0.028-0.031-0.056-0.048-0.084c1.193,9.118,2.386,18.237,3.579,27.355c0.011-0.042,0.021-0.084,0.032-0.126
			c-1.193,2.826-2.386,5.653-3.579,8.48c0.041-0.061,0.082-0.12,0.122-0.181c-1.85,2.396-3.7,4.79-5.551,7.186
			c0.96-1.061,2.12-1.953,3.201-2.882c4.414-3.79,7.562-9.527,10.882-14.37c4.667-6.806,9.427-13.547,14.238-20.251
			c9.617-13.399,19.53-26.585,29.611-39.639c-1.851,2.396-3.7,4.79-5.551,7.185c25.373-32.776,52.626-64.01,78.196-96.612
			c22.769-29.031,45.111-59.562,74.535-82.312c-2.395,1.851-4.789,3.701-7.185,5.551c3.919-2.974,7.942-5.777,12.118-8.379
			c-16.19-16.19-32.381-32.38-48.571-48.571c-3.482,5.055-7.103,10.005-10.833,14.879c1.85-2.395,3.7-4.79,5.551-7.185
			c-19.88,25.725-42.085,49.496-61.831,75.345c1.851-2.395,3.7-4.79,5.551-7.185c-7.077,9.096-14.88,17.598-21.947,26.704
			c-9.787,12.609-20.515,26.267-23.563,42.414c-1.826,9.678-1.54,18.615,3.579,27.355c5.694,9.721,18.706,19.142,30.653,17.582
			c7.538-0.984,14.856-1.823,22.133-3.963c7.074-2.081,13.91-5.184,20.58-8.265c9.338-4.312,17.922-10.156,26.101-16.345
			c18.676-14.133,35.61-30.29,54.071-44.665c-2.395,1.851-4.79,3.7-7.185,5.551c9.233-7.109,18.939-13.606,29.71-18.156
			c-16.189-16.19-32.38-32.381-48.57-48.571c-27.95,49.481-63.223,94.332-97.495,139.493c20.436,11.945,40.871,23.891,61.307,35.836
			c13.474-19.384,27.284-38.53,41.688-57.234c-1.851,2.395-3.7,4.789-5.551,7.185c26.866-34.77,55.802-68.145,88.806-97.258
			c-19.778-11.513-39.557-23.026-59.334-34.54c-1.317,4.645-2.926,9.169-4.765,13.632c1.192-2.827,2.386-5.653,3.578-8.48
			c-9.656,22.709-24.501,42.812-39.499,62.234c1.85-2.396,3.7-4.79,5.551-7.186c-33.719,43.518-67.859,87.101-94.78,135.309
			c-7.803,13.973-5.894,31.575,5.551,43.021c6.628,6.627,15.725,10.397,25.103,10.397c10.064,0,17.632-4.134,25.103-10.397
			c28.77-24.124,52.701-53.459,82.341-76.642c-2.395,1.851-4.79,3.701-7.185,5.551c10.705-8.266,22.041-15.701,34.516-21.02
			c-2.827,1.192-5.653,2.386-8.48,3.579c2.517-1.034,5.055-1.98,7.638-2.835c-14.557-14.556-29.113-29.112-43.67-43.669
			c-0.205,0.497-0.41,0.994-0.615,1.491c1.193-2.826,2.387-5.653,3.579-8.48c-9.614,21.968-28.062,38.424-38.383,60.006
			c-6.965,14.565-6.429,31.041,5.551,43.021c10.618,10.617,30.048,14.566,43.021,5.551c20.066-13.946,37.47-31.006,56.716-45.957
			c-2.395,1.85-4.789,3.7-7.185,5.551c5.75-4.396,11.679-8.495,17.965-12.091c-16.19-16.19-32.381-32.381-48.571-48.571
			c-15.366,25.897-35.531,48.9-47.997,76.496c-3.211,5.537-4.827,11.51-4.847,17.918c0,9.378,3.771,18.475,10.397,25.103
			c11.219,11.218,29.312,13.695,43.02,5.551c33.146-19.692,61.562-46.611,84.732-77.232c7.405-9.787,5.834-25.876,0-35.836
			c-7.418-12.662-25.457-22.026-40.091-16.313c-8.115,3.168-15.896,6.636-23.406,11.01c-5.454,3.178-10.79,6.501-16.571,9.067
			c17.806,10.218,35.611,20.436,53.417,30.653c-0.286-4.052-0.102-8.047,0.438-12.07c-0.423,3.146-0.846,6.292-1.269,9.438
			c1.147-7.457,3.431-14.591,6.333-21.541c-1.193,2.827-2.386,5.654-3.579,8.48c6.821-15.819,16.466-30.223,26.941-43.833
			c-1.85,2.396-3.7,4.79-5.551,7.185c8.25-10.617,17.083-20.751,26.286-30.55c10.958-11.668,13.81-28.922,5.551-43.021
			c-4.648-7.935-12.343-13.873-21.216-16.314c-8.204-2.256-20.257-1.887-27.355,3.579c-21.717,16.723-41.329,35.918-63.004,52.682
			c2.395-1.851,4.789-3.701,7.185-5.552c-9.861,7.552-20.17,14.732-31.603,19.707c2.826-1.192,5.653-2.386,8.48-3.578
			c-3.758,1.567-7.579,2.848-11.573,3.659c14.557,14.556,29.113,29.112,43.669,43.669c1.787-6.327,3.977-12.497,6.49-18.57
			c-1.192,2.826-2.386,5.653-3.578,8.48c7.488-17.644,17.489-33.996,27.213-50.462c11.185-18.942,21.497-38.467,28.373-59.442
			c3.892-11.875-0.508-25.917-9.13-34.54c-9.048-9.047-22.228-12.332-34.54-9.129c-35.524,9.241-62.692,34.013-93.977,51.577
			c17.807,10.218,35.612,20.436,53.418,30.653c0.039-0.317,0.077-0.636,0.116-0.953c-0.423,3.146-0.846,6.291-1.269,9.438
			c0.525-3.414,1.518-6.655,2.811-9.854c-1.193,2.827-2.386,5.653-3.579,8.48c3.06-7.143,7.361-13.6,12.073-19.748
			c-1.85,2.395-3.7,4.79-5.551,7.185c16.531-21.171,37.431-38.234,56.997-56.441c22.273-20.728,5.588-61.964-25.103-60.603
			c-40.903,1.814-75.677,26.476-112.252,42.066c2.827-1.193,5.653-2.386,8.48-3.579c-10.26,4.306-20.806,8.021-31.854,9.639
			c3.146-0.423,6.291-0.846,9.438-1.268c-5.342,0.697-10.66,0.853-16.015,0.198c3.146,0.423,6.292,0.846,9.438,1.268
			c-1.104-0.161-2.195-0.346-3.29-0.559c7.072,17.383,14.144,34.766,21.216,52.149c2.83-5.295,6.106-10.272,9.742-15.048
			c-1.851,2.395-3.7,4.79-5.551,7.185c19.428-24.872,46.327-42.237,69.754-62.948c11.845-10.473,13.241-29.892,5.551-43.02
			c-3.156-5.334-7.401-9.58-12.735-12.736c-8.826-5.17-17.601-5.286-27.355-3.579c-27.605,4.832-52.275,19.252-79.496,25.499
			c14.557,14.557,29.113,29.113,43.67,43.669c0.583-1.943,1.264-3.828,2.048-5.699c-1.192,2.827-2.386,5.654-3.579,8.48
			c2.043-4.546,4.649-8.704,7.691-12.646c-1.85,2.395-3.7,4.79-5.551,7.185c5.563-6.95,12.165-12.868,19.185-18.31
			c-2.396,1.85-4.79,3.701-7.186,5.551c15.618-11.908,33.015-21.092,49.073-32.342c13.183-9.236,20.803-23.773,16.314-40.091
			c-3.917-14.238-18.69-27.405-34.232-26.062c-23.071,1.993-44.183,9.107-66.435,14.768c9.118,21.628,18.236,43.257,27.354,64.885
			c6.139-4.491,12.744-8.029,19.726-11.022c-2.827,1.193-5.653,2.386-8.48,3.579c6.321-2.615,12.787-4.814,19.273-6.978
			c15.102-5.037,26.062-17.796,26.062-34.232c0-9.377-3.771-18.475-10.397-25.102c-7.265-7.265-15.29-9.221-25.103-10.398
			c-13.982-1.676-28.244,2.065-42.041,4.02c3.146-0.422,6.292-0.845,9.438-1.268c-0.632,0.083-1.263,0.166-1.895,0.249
			c-9.842,1.291-17.78,3.076-25.103,10.398c-6.627,6.627-10.397,15.725-10.397,25.102s3.771,18.475,10.397,25.103
			c5.92,5.919,16.37,11.542,25.103,10.397c8.798-1.154,17.546-2.541,26.329-3.771c-3.146,0.423-6.291,0.845-9.438,1.268
			c5.88-0.758,11.7-1.205,17.606-0.497c-3.146-23.244-6.292-46.488-9.438-69.732c-16.42,5.477-33.391,11.271-47.478,21.578
			c-5.335,3.156-9.58,7.401-12.736,12.736c-4.803,8.199-6.099,18.192-3.578,27.355c5.203,18.916,24.929,29.562,43.669,24.794
			c17.171-4.369,33.896-10.481,51.514-12.927c-3.146,0.422-6.291,0.845-9.437,1.268c1.826-0.223,3.649-0.415,5.482-0.573
			c-5.973-22.051-11.945-44.102-17.918-66.153c-35.906,25.156-80.604,44.611-94.311,90.212c-3.622,12.054,0.339,25.748,9.13,34.54
			c9.246,9.246,22.037,11.999,34.54,9.13c27.221-6.246,51.89-20.667,79.496-25.499c-11.514-19.778-23.026-39.556-34.54-59.334
			c-30.09,26.603-65.559,48.717-85.047,85.181c-4.558,8.527-6.181,17.896-3.579,27.355c3.088,11.222,12.926,22.487,24.795,24.794
			c14.991,2.914,27.942,2.429,42.929-0.443c12.378-2.373,24.06-7.501,35.584-12.413c19.739-8.414,38.413-19.096,58.139-27.538
			c-2.827,1.193-5.653,2.386-8.48,3.579c9.868-4.158,20.027-7.786,30.683-9.229c-3.146,0.423-6.291,0.845-9.437,1.268
			c1.835-0.217,3.666-0.371,5.513-0.453c-8.367-20.201-16.734-40.401-25.103-60.603c-14.857,13.827-30.32,26.97-44.293,41.725
			c-8.871,9.368-17.184,19.519-24.242,30.316c-8.091,12.376-12.093,25.548-13.858,40.058c-1.459,11.991,7.79,24.917,17.582,30.653
			c11.101,6.502,24.717,6.242,35.836,0c24.486-13.748,46.072-32.499,72.098-43.505c-2.827,1.193-5.653,2.387-8.48,3.579
			c4.381-1.781,8.82-3.303,13.398-4.494c-14.557-14.556-29.113-29.112-43.67-43.669c-1.508,4.602-3.217,9.117-5.096,13.58
			c1.193-2.827,2.386-5.653,3.579-8.48c-17.038,39.47-45.138,72.962-56.979,114.895c-3.438,12.171,0.224,25.634,9.129,34.54
			c9.418,9.418,21.879,11.699,34.54,9.129c24.867-5.048,46.507-22.424,65.704-37.924c16.41-13.248,31.499-28.09,48.128-41.063
			c-2.396,1.851-4.79,3.7-7.186,5.551c0.276-0.213,0.553-0.425,0.829-0.638c-14.34-18.585-28.681-37.171-43.021-55.756
			c-16.685,17.767-32.444,36.75-45.674,57.244c-14.123,21.881-26.601,49.183-24.721,75.853c0.898,12.748,6.201,23.986,17.583,30.653
			c5.536,3.211,11.509,4.827,17.917,4.847c6.408-0.02,12.381-1.636,17.917-4.847c9.812-4.356,18.497-10.806,28.297-15.202
			c-2.826,1.193-5.653,2.386-8.48,3.579c1.057-0.46,2.124-0.893,3.202-1.298c-13.363-17.383-26.728-34.766-40.091-52.149
			c-0.626,0.835-1.259,1.664-1.898,2.488c1.85-2.396,3.7-4.79,5.551-7.186c-13.646,17.424-29.778,32.861-47.243,46.417
			c2.396-1.851,4.79-3.701,7.186-5.551c-7.333,5.616-14.912,10.873-22.854,15.593c16.189,16.19,32.38,32.381,48.57,48.571
			c12.466-27.597,32.631-50.6,47.997-76.496c8.138-13.715,5.672-31.797-5.551-43.021c-11.357-11.357-29.148-13.485-43.021-5.551
			c-24.463,13.994-44.088,34.729-66.22,51.875c2.396-1.851,4.79-3.7,7.185-5.551c-2.777,2.119-5.592,4.179-8.461,6.173
			c16.19,16.19,32.381,32.381,48.571,48.571c5.437-11.369,13.021-21.362,20.548-31.399c9.195-12.261,16.165-24.368,22.029-38.578
			c4.666-11.309-1.014-26.424-9.13-34.54c-8.604-8.604-22.685-13.052-34.54-9.129c-58.631,19.396-94.667,71.479-140.159,109.624
			c18.585,14.34,37.171,28.68,55.756,43.021c19.195-34.374,42.077-67.388,66.087-98.573c-1.851,2.396-3.701,4.79-5.551,7.186
			c28.922-37.424,63.321-74.489,76.535-121.083c4.342-15.308-2.668-32.097-16.314-40.091c-14.424-8.449-30.964-5.083-43.02,5.551
			c-52.925,46.686-95.931,103.967-136.044,161.676c-11.062,15.916-2.972,39.37,12.735,48.571c8.199,4.803,18.192,6.099,27.355,3.578
			c9.738-2.679,15.354-8.589,21.216-16.313c34.272-45.162,69.545-90.013,97.495-139.493c7.865-13.925,5.853-31.617-5.551-43.021
			c-4.43-4.399-9.651-7.443-15.665-9.129c-10.131-2.787-18.107-0.327-27.354,3.579c-16.447,6.947-30.671,18.427-44.34,29.675
			c-12.909,10.624-25.124,22.065-38.35,32.31c2.395-1.851,4.79-3.701,7.185-5.552c-9.579,7.336-19.649,13.999-30.767,18.776
			c2.827-1.193,5.653-2.386,8.48-3.579c-6.43,2.658-13.037,4.591-19.924,5.618c3.146-0.423,6.292-0.846,9.438-1.269
			c-0.433,0.057-0.866,0.113-1.299,0.17c11.41,14.979,22.821,29.958,34.232,44.938c0.484-2.571,1.28-4.996,2.279-7.411
			c-1.193,2.826-2.387,5.653-3.579,8.48c3.109-7,7.519-13.277,12.154-19.339c-1.851,2.396-3.701,4.79-5.552,7.185
			c9.825-12.658,20.82-24.351,30.116-37.432c-1.851,2.395-3.7,4.789-5.551,7.185c22.892-29.303,48.901-55.987,70.047-86.681
			c8.967-13.016,5.102-32.368-5.551-43.02c-11.039-11.039-29.526-13.961-43.021-5.551c-45.87,28.588-74.891,74.438-108.886,114.984
			c-40.921,48.808-81.079,98.479-116.839,151.238c1.851-2.395,3.701-4.789,5.551-7.185c-6.21,5.322-11.431,11.523-13.525,19.744
			c-3.588,14.082,1.884,33.626,16.362,40.174c9.343,4.226,8.343,3.688,18.703,4.997c-3.146-0.423-6.291-0.846-9.437-1.269
			c0.326,0.057,0.615,0.134,0.926,0.251c-2.826-1.192-5.653-2.386-8.479-3.578c0.106,0.058,0.212,0.115,0.318,0.174
			c-2.396-1.851-4.79-3.701-7.185-5.551c0.229,0.149,0.426,0.334,0.59,0.553c-1.851-2.395-3.701-4.789-5.552-7.185
			c0.084,0.135,0.168,0.27,0.251,0.404c-1.192-2.827-2.386-5.653-3.578-8.48c0.175,0.355,0.295,0.729,0.362,1.121
			c-0.423-3.146-0.846-6.292-1.269-9.438c0.111,0.903,0.101,1.732,0.041,2.643c0.423-3.146,0.846-6.292,1.269-9.438
			c-0.093,0.855-0.235,1.702-0.427,2.541c-2.488,12.702-0.336,25.075,9.129,34.54c4.43,4.399,9.651,7.442,15.665,9.129
			c8.225,2.263,20.232,1.875,27.354-3.578c24.146-18.487,47.081-38.086,68.465-59.726c18.737-18.96,36.33-39.012,54.08-58.886
			c13.729-15.373,27.604-30.497,41.976-45.265c16.306-16.754,31.939-34.078,45.489-53.181c15.047-21.213,25.67-47.301,19.295-73.521
			c-4.479-18.419-25.578-30.313-43.67-24.794c-80.886,24.673-133.928,94.513-198.391,144.532c2.396-1.851,4.79-3.7,7.185-5.551
			c-4.51,3.472-9.089,6.844-13.765,10.09c14.34,18.585,28.681,37.171,43.021,55.756c65.827-56.193,132.233-112.76,184.042-182.676
			c9.369-12.644,4.812-32.657-5.551-43.02c-4.43-4.399-9.651-7.443-15.665-9.129c-9.931-2.731-18.318-0.538-27.354,3.579
			c-43.976,20.029-86.692,43.252-125.69,71.901c-43.096,31.658-82.684,69.246-109.034,116.326c-6.23,11.132-6.509,24.724,0,35.836
			c8.098,13.822,24.674,20.402,40.091,16.313c30.792-8.164,53.795-31.891,78.196-50.865c-2.396,1.851-4.79,3.701-7.186,5.552
			c29.055-22.304,59.271-43.308,88.961-64.76c5.335-3.156,9.58-7.401,12.736-12.735c4.803-8.199,6.099-18.192,3.578-27.355
			c-5.11-18.579-25.045-30.015-43.669-24.794c-36.66,10.276-70.779,27.973-102.711,48.432
			c-30.448,19.51-59.399,41.262-90.261,60.142c16.19,16.19,32.381,32.381,48.571,48.571c3.873-6.144,8.199-11.979,12.627-17.73
			c-1.851,2.395-3.701,4.79-5.552,7.185c17.629-22.776,36.627-44.504,52.985-68.251c15.526-22.539,30.396-50.384,28.782-78.614
			c-0.55-9.61-3.461-18.166-10.397-25.102c-8.758-8.758-22.521-12.807-34.54-9.13c-28.662,8.77-57.647,25.914-66.793,56.293
			c-5.855,19.455,6.884,37.426,24.795,43.669c14.326,4.994,29.953,6.656,45.03,7.365c14.388,0.677,28.843-0.293,43.141-1.885
			c30.322-3.376,60.348-9.133,89.696-17.479c15.211-4.326,26.062-18.339,26.062-34.232c0-18.158-16.186-37.078-35.5-35.5
			c-13.377,1.093-26.33,3.445-38.975,7.902c-12.841,4.526-25.264,10.371-37.439,16.443c-17.593,8.773-34.987,18.052-52.164,27.61
			c-37.062,20.623-74.396,44.232-103.514,75.436c-10.925,11.709-13.829,28.889-5.551,43.021c9.8,16.729,31.82,22.439,48.57,12.735
			c46.99-27.222,88.796-61.539,130.97-95.485c36.78-29.605,76.249-59.389,99.256-101.741c4.602-8.471,6.166-17.947,3.579-27.355
			c-2.954-10.738-13.008-23.143-24.795-24.794c-11.06-1.55-20.054-1.786-31.066,1.104c-8.24,2.162-16.149,5.973-23.758,9.749
			c-11.172,5.545-21.559,12.54-32.186,19.029c-27.838,16.998-55.185,35.501-84.338,50.193c14.34,18.585,28.68,37.171,43.02,55.756
			c6.493-6.665,13.483-12.771,20.812-18.499c-2.396,1.851-4.79,3.7-7.186,5.551c43.861-33.87,98.08-55.227,133.365-99.547
			c4.399-4.429,7.442-9.651,9.129-15.665c1.691-6.292,1.691-12.583,0-18.875c-4.365-15.87-18.339-25.177-34.231-26.062
			c-30.096-1.676-58.965,13.611-85.413,25.846c2.826-1.193,5.653-2.386,8.479-3.579c-56.879,22.096-114.347,42.572-170.472,66.576
			c11.944,20.436,23.89,40.871,35.834,61.307c14.797-7.898,30.043-14.873,45.479-21.42c-2.827,1.193-5.653,2.386-8.48,3.579
			c51.806-21.857,106.294-39.391,153.491-70.654c13.369-8.855,20.719-24.081,16.314-40.091
			c-4.088-14.864-18.522-26.56-34.231-26.062c-40.901,1.294-78.78,21.096-111.016,45.002
			c-30.704,22.771-58.669,48.899-83.578,77.889c-10.495,12.216-14.08,28.459-5.551,43.021c4.648,7.936,12.343,13.873,21.216,16.313
			c10.005,2.753,18.239,0.461,27.355-3.578c27.807-12.323,52.356-30.39,76.182-49.049c-2.396,1.851-4.79,3.701-7.186,5.551
			c23.877-16.563,48.238-32.104,71.134-50.065c24.207-18.99,45.989-42.073,56.175-71.646c4.053-11.765-0.608-26.02-9.129-34.54
			c-4.43-4.4-9.651-7.443-15.665-9.13c-6.292-1.691-12.583-1.691-18.875,0c-43.576,6.859-81.853,31.155-121.885,48.143
			c2.827-1.193,5.653-2.386,8.48-3.579c-8.542,3.577-17.203,6.811-26.089,9.434c9.118,21.628,18.236,43.257,27.355,64.885
			c30-22.942,63.906-39.846,97.292-57.192c36.018-18.713,71.015-38.719,101.883-65.354c11.952-10.312,13.168-30.017,5.551-43.02
			c-3.156-5.334-7.401-9.58-12.735-12.736c-9.059-5.306-17.402-4.947-27.355-3.579c-34.393,4.729-66.562,21.999-94.753,41.548
			c-30.19,20.935-57.78,45.325-86.794,67.8c2.396-1.851,4.79-3.701,7.186-5.551c-15.01,11.579-30.457,22.658-47.107,31.775
			c16.189,16.19,32.38,32.38,48.57,48.571c0.545-0.783,1.103-1.551,1.679-2.311c-1.851,2.395-3.7,4.79-5.551,7.185
			c3.042-3.851,6.557-7.201,10.408-10.234c-2.396,1.85-4.79,3.701-7.185,5.551c10.08-7.718,21.703-13.055,33.339-17.972
			c-2.827,1.193-5.653,2.386-8.48,3.579c18.837-7.905,38.444-14.607,56.161-24.896c20.876-12.124,37.613-29.965,44.701-53.377
			c4.203-13.88-2.231-33.881-16.314-40.091c-14.171-6.248-28.546-9.759-44.17-8.509c-13.873,1.109-27.295,4.08-40.515,8.291
			c-21.276,6.778-42.025,16.718-64.271,19.977c3.146-0.423,6.292-0.845,9.438-1.268c-2.958,0.39-5.908,0.632-8.893,0.662
			c10.218,17.806,20.436,35.612,30.653,53.417c0.78-1.229,1.611-2.41,2.495-3.566c-1.851,2.395-3.7,4.79-5.551,7.185
			c3.256-4.087,7.069-7.605,11.172-10.826c-2.396,1.85-4.79,3.7-7.186,5.551c10.034-7.686,21.358-13.475,32.947-18.426
			c-2.827,1.193-5.654,2.386-8.48,3.579c21.258-8.94,43.847-15.36,66.712-18.475c-3.146,0.423-6.292,0.846-9.438,1.268
			c6.684-0.872,13.423-1.47,20.168-1.204c-5.973-22.051-11.945-44.102-17.917-66.153c-29.102,20.905-58.748,41.489-91.895,55.52
			c2.826-1.193,5.653-2.386,8.48-3.579c-18.369,7.639-37.472,13.029-57.199,15.689c3.146-0.422,6.291-0.845,9.437-1.268
			c-2.297,0.291-4.595,0.553-6.898,0.787c-9.76,0.993-17.931,3.227-25.103,10.397c-6.627,6.628-10.397,15.725-10.397,25.103
			s3.771,18.475,10.397,25.103C-1333.771-642.54-1323.631-637.314-1314.744-638.218L-1314.744-638.218z"/>
	</g>
</g>
<path style="opacity:0.8;fill:#FF0000;stroke:#000000;stroke-width:5;stroke-miterlimit:10;" d="M-2015.123-652.561
	c19.437-0.006,37.736,3.647,54.888,10.954c17.151,7.279,32.139,17.333,44.966,30.177c12.806,12.828,22.887,27.814,30.188,44.955
	c7.262,17.135,10.916,35.429,10.916,54.882c-0.012,19.432-3.654,37.726-10.933,54.866c-7.296,17.156-17.36,32.16-30.183,44.977
	c-12.833,12.822-27.798,22.952-44.961,30.375c-17.156,7.41-35.434,11.136-54.876,11.141c-19.448-0.011-37.802-3.719-55.08-11.157
	c-17.288-7.417-32.27-17.53-44.954-30.369c-12.707-12.822-22.761-27.81-30.205-44.95c-7.422-17.162-11.113-35.439-11.13-54.882
	c0,0-21.37-211.782-6.565-234.979c8.878-13.91,72.242-18.783,77.868,7.282c3.84,17.802-5.274,108.61-5.274,108.61
	c10.79-7.026,22.535-12.41,35.226-16.217C-2042.53-650.649-2029.159-652.55-2015.123-652.561z M-2070.197-381.392
	c-17.311-7.417-32.27-17.53-44.954-30.369 M-2015.117-436.258c10.257-0.005,19.976-1.967,29.171-5.884
	c9.17-3.905,17.201-9.312,24.08-16.189c6.895-6.89,12.3-14.844,16.206-23.897c3.911-9.048,5.872-18.844,5.861-29.386
	c0.017-10.51-1.95-20.305-5.856-29.353c-3.922-9.055-9.316-17.02-16.2-23.909c-6.89-6.873-14.921-12.273-24.102-16.201
	c-9.163-3.9-18.897-5.862-29.155-5.867c-10.542,0.011-20.337,1.956-29.363,5.873c-9.054,3.928-17.02,9.334-23.887,16.212
	c-6.9,6.867-12.295,14.855-16.229,23.887c-3.9,9.054-5.867,18.854-5.878,29.369c0.006,10.537,1.961,20.321,5.884,29.369
	c3.895,9.043,9.312,16.998,16.217,23.897c6.879,6.895,14.839,12.295,23.887,16.185
	C-2035.444-438.229-2025.644-436.246-2015.117-436.258z"/>
<g>
	<path style="fill:#0071BC;stroke:#000000;stroke-width:4;stroke-miterlimit:10;" d="M-2152.278-648.319
		c14.85,55.505,14.85,208.596,0,261.92c-5.917,21.244-63.26,21.859-66.155,0c-7.246-54.731-26.134-206.415,0-261.92
		C-2209.039-668.27-2157.976-669.622-2152.278-648.319z"/>
</g>
<path style="fill-rule:evenodd;clip-rule:evenodd;fill:#0071BC;stroke:#000000;stroke-width:4;stroke-miterlimit:10;" d="
	M-2144.033-731.699c0,22.914-14.579,42-32.563,42h-20.039c-17.985,0-32.564-19.086-32.564-42l0,0c0-22.914,14.579-42,32.564-42
	h20.039C-2158.612-773.699-2144.033-754.613-2144.033-731.699L-2144.033-731.699z"/>
<path style="stroke:#FFFFFF;stroke-width:6;stroke-miterlimit:10;" d="M-1053.123-644.561c19.437-0.006,37.736,3.647,54.888,10.954
	c17.151,7.279,32.139,17.333,44.966,30.177c12.806,12.828,22.887,27.814,30.188,44.955c7.262,17.135,10.916,35.429,10.916,54.882
	c-0.012,19.432-3.654,37.726-10.933,54.866c-7.296,17.156-17.36,32.16-30.183,44.977c-12.833,12.822-27.798,22.952-44.961,30.375
	c-17.156,7.41-35.434,11.136-54.876,11.141c-19.448-0.011-37.802-3.719-55.08-11.157c-17.288-7.417-32.27-17.53-44.954-30.369
	c-12.707-12.822-22.761-27.81-30.205-44.95c-7.422-17.162-11.113-35.439-11.13-54.882c0,0-21.37-211.782-6.565-234.979
	c8.878-13.91,72.242-18.783,77.868,7.282c3.84,17.802-5.274,108.61-5.274,108.61c10.79-7.026,22.535-12.41,35.226-16.217
	C-1080.53-642.649-1067.159-644.55-1053.123-644.561z M-1108.197-373.392c-17.311-7.417-32.27-17.53-44.954-30.369
	 M-1053.117-428.258c10.257-0.005,19.976-1.967,29.171-5.884c9.17-3.905,17.201-9.312,24.08-16.189
	c6.895-6.89,12.3-14.844,16.206-23.897c3.911-9.048,5.872-18.844,5.861-29.386c0.017-10.51-1.95-20.305-5.856-29.353
	c-3.922-9.055-9.316-17.02-16.2-23.909c-6.89-6.873-14.921-12.273-24.102-16.201c-9.163-3.9-18.897-5.862-29.155-5.867
	c-10.542,0.011-20.337,1.956-29.363,5.873c-9.054,3.928-17.02,9.334-23.887,16.212c-6.9,6.867-12.295,14.855-16.229,23.887
	c-3.9,9.054-5.867,18.854-5.878,29.369c0.006,10.537,1.961,20.321,5.884,29.369c3.895,9.043,9.312,16.998,16.217,23.897
	c6.879,6.895,14.839,12.295,23.887,16.185C-1073.444-430.229-1063.644-428.246-1053.117-428.258z"/>
<g>
	<path style="stroke:#FFFFFF;stroke-width:6;stroke-miterlimit:10;" d="M-1190.278-640.319c14.85,55.505,14.85,208.596,0,261.92
		c-5.917,21.244-63.26,21.859-66.155,0c-7.246-54.731-26.134-206.415,0-261.92C-1247.039-660.27-1195.976-661.622-1190.278-640.319z
		"/>
</g>
<path style="fill-rule:evenodd;clip-rule:evenodd;stroke:#FFFFFF;stroke-width:6;stroke-miterlimit:10;" d="M-1182.033-722.699
	c0,22.914-14.579,42-32.563,42h-20.039c-17.984,0-32.563-19.086-32.563-42l0,0c0-22.914,14.579-42,32.563-42h20.039
	C-1196.612-764.699-1182.033-745.613-1182.033-722.699L-1182.033-722.699z"/>
<path style="stroke:#FFFFFF;stroke-width:5;stroke-miterlimit:10;" d="M-29.123-636.561c19.437-0.006,37.736,3.647,54.888,10.954
	c17.151,7.279,32.139,17.333,44.966,30.177c12.806,12.828,22.887,27.814,30.188,44.955c7.262,17.135,10.916,35.429,10.916,54.882
	c-0.012,19.432-3.654,37.726-10.933,54.866c-7.296,17.156-17.36,32.16-30.183,44.977c-12.833,12.822-27.798,22.952-44.961,30.375
	c-17.156,7.41-35.434,11.136-54.876,11.141c-19.448-0.011-37.802-3.719-55.08-11.157c-17.288-7.417-32.27-17.53-44.954-30.369
	c-12.707-12.822-22.761-27.81-30.205-44.95c-7.422-17.162-11.113-35.439-11.13-54.882c0,0-21.37-211.782-6.565-234.979
	c8.878-13.91,72.242-18.783,77.868,7.282c3.84,17.802-5.274,108.61-5.274,108.61c10.79-7.026,22.535-12.41,35.226-16.217
	C-56.53-634.649-43.159-636.55-29.123-636.561z M-84.197-365.392c-17.311-7.417-32.27-17.53-44.954-30.369 M-29.117-420.258
	c10.257-0.005,19.976-1.967,29.171-5.884c9.17-3.905,17.201-9.312,24.08-16.189c6.895-6.89,12.3-14.844,16.206-23.897
	c3.911-9.048,5.872-18.844,5.861-29.386c0.017-10.51-1.95-20.305-5.856-29.353c-3.922-9.055-9.316-17.02-16.2-23.909
	c-6.89-6.872-14.921-12.272-24.102-16.2c-9.163-3.9-18.897-5.862-29.155-5.867c-10.542,0.01-20.337,1.955-29.363,5.872
	c-9.054,3.929-17.02,9.334-23.887,16.212c-6.9,6.867-12.295,14.855-16.229,23.887c-3.9,9.054-5.867,18.854-5.878,29.369
	c0.006,10.537,1.961,20.321,5.884,29.369c3.895,9.043,9.312,16.998,16.217,23.897c6.879,6.895,14.839,12.295,23.887,16.185
	C-49.444-422.229-39.644-420.246-29.117-420.258z"/>
<g>
	<path style="stroke:#FFFFFF;stroke-width:7;stroke-miterlimit:10;" d="M-166.278-632.319c14.85,55.505,14.85,208.596,0,261.92
		c-5.917,21.244-63.26,21.859-66.155,0c-7.246-54.731-26.134-206.415,0-261.92C-223.039-652.27-171.976-653.622-166.278-632.319z"/>
</g>
<path style="fill-rule:evenodd;clip-rule:evenodd;stroke:#FFFFFF;stroke-width:7;stroke-miterlimit:10;" d="M-158.033-714.199
	c0,22.914-14.579,42-32.563,42h-20.039c-17.984,0-32.563-19.086-32.563-42l0,0c0-22.914,14.579-42,32.563-42h20.039
	C-172.612-756.199-158.033-737.113-158.033-714.199L-158.033-714.199z"/>
<ellipse cx="-7.041" cy="-497.442" rx="48.766" ry="50.28"/>
<path style="fill:#F7C24B;stroke:#000000;stroke-width:5;stroke-miterlimit:10;" d="M994.287-632.561
	c19.437-0.006,37.736,3.647,54.888,10.954c17.151,7.279,32.139,17.333,44.966,30.177c12.806,12.828,22.887,27.814,30.188,44.955
	c7.262,17.135,10.916,35.429,10.916,54.882c-0.012,19.432-3.654,37.726-10.933,54.866c-7.296,17.156-17.36,32.16-30.183,44.977
	c-12.833,12.822-27.798,22.952-44.961,30.375c-17.156,7.41-35.434,11.136-54.876,11.141c-19.448-0.011-37.802-3.719-55.08-11.157
	c-17.288-7.417-32.27-17.53-44.954-30.369c-12.707-12.822-22.761-27.81-30.205-44.95c-7.422-17.162-11.113-35.439-11.13-54.882
	c0,0-21.37-211.782-6.565-234.979c8.878-13.91,72.242-18.783,77.868,7.282c3.84,17.802-5.274,108.61-5.274,108.61
	c10.79-7.026,22.535-12.41,35.226-16.217C966.88-630.649,980.251-632.55,994.287-632.561z M939.213-361.392
	c-17.311-7.417-32.27-17.53-44.954-30.369 M994.293-416.258c10.257-0.005,19.976-1.967,29.171-5.884
	c9.17-3.905,17.201-9.312,24.08-16.189c6.895-6.89,12.3-14.844,16.206-23.897c3.911-9.048,5.872-18.844,5.861-29.386
	c0.017-10.51-1.95-20.305-5.856-29.353c-3.922-9.055-9.316-17.02-16.2-23.909c-6.89-6.872-14.921-12.272-24.102-16.2
	c-9.163-3.9-18.897-5.862-29.155-5.867c-10.542,0.01-20.337,1.955-29.363,5.872c-9.054,3.929-17.02,9.334-23.887,16.212
	c-6.9,6.867-12.295,14.855-16.229,23.887c-3.9,9.054-5.867,18.854-5.878,29.369c0.006,10.537,1.961,20.321,5.884,29.369
	c3.895,9.043,9.312,16.998,16.217,23.897c6.879,6.895,14.839,12.295,23.887,16.185C973.966-418.229,983.767-416.246,994.293-416.258
	z"/>
<g>
	<path style="fill:#A51B2B;stroke:#000000;stroke-width:7;stroke-miterlimit:10;" d="M857.132-628.319
		c14.85,55.505,14.85,208.596,0,261.92c-5.917,21.244-63.26,21.859-66.155,0c-7.246-54.731-26.134-206.415,0-261.92
		C800.371-648.27,851.435-649.622,857.132-628.319z"/>
</g>
<path style="fill-rule:evenodd;clip-rule:evenodd;fill:#A51B2B;stroke:#000000;stroke-width:7;stroke-miterlimit:10;" d="
	M865.377-710.199c0,22.914-14.579,42-32.563,42h-20.039c-17.984,0-32.563-19.086-32.563-42l0,0c0-22.914,14.579-42,32.563-42h20.039
	C850.798-752.199,865.377-733.113,865.377-710.199L865.377-710.199z"/>
<ellipse style="fill:#FFFFFF;" cx="62.802" cy="63.545" rx="19.055" ry="19.646"/>
<ellipse style="stroke:#000000;stroke-miterlimit:10;" cx="1016.369" cy="-493.442" rx="48.766" ry="50.28"/>
<path style="stroke:#FFFFFF;stroke-width:2;stroke-miterlimit:10;" d="M63.016,31.109c4.532-0.002,8.799,0.851,12.798,2.554
	c3.998,1.697,7.492,4.041,10.483,7.036c2.985,2.99,5.336,6.484,7.038,10.48c1.693,3.995,2.545,8.261,2.545,12.796
	c-0.003,4.531-0.852,8.796-2.549,12.792c-1.701,4-4.047,7.498-7.037,10.486c-2.992,2.989-6.48,5.352-10.482,7.082
	c-4,1.729-8.262,2.597-12.794,2.598c-4.535-0.003-8.813-0.867-12.843-2.602c-4.03-1.729-7.523-4.087-10.48-7.081
	c-2.963-2.988-5.307-6.483-7.043-10.479c-1.73-4.001-2.591-8.263-2.595-12.796c0,0-4.982-49.376-1.53-54.785
	c2.069-3.244,16.843-4.379,18.154,1.697c0.896,4.151-1.229,25.323-1.229,25.323c2.516-1.639,5.254-2.894,8.213-3.781
	C56.626,31.555,59.743,31.111,63.016,31.109z M50.175,94.332c-4.036-1.729-7.523-4.087-10.48-7.081 M63.018,81.54
	c2.392-0.001,4.657-0.458,6.8-1.372c2.139-0.91,4.012-2.171,5.615-3.774c1.607-1.606,2.868-3.461,3.779-5.571
	c0.91-2.11,1.369-4.394,1.366-6.852c0.004-2.45-0.456-4.734-1.366-6.844c-0.914-2.111-2.172-3.968-3.777-5.574
	c-1.605-1.603-3.479-2.861-5.618-3.777c-2.137-0.909-4.407-1.367-6.798-1.368c-2.459,0.003-4.742,0.456-6.846,1.369
	c-2.111,0.916-3.969,2.177-5.57,3.78c-1.608,1.602-2.866,3.464-3.783,5.569c-0.909,2.11-1.368,4.396-1.371,6.847
	c0.002,2.457,0.459,4.738,1.373,6.848c0.907,2.108,2.171,3.964,3.78,5.572c1.604,1.607,3.46,2.866,5.569,3.773
	C58.278,81.081,60.563,81.543,63.018,81.54z"/>
<g>
	<g>
		<path style="fill:#FFFFFF;" d="M30.339,32.098c3.462,12.94,3.462,48.634,0,61.067c-1.38,4.953-14.75,5.097-15.425,0
			c-1.688-12.762-6.093-48.127,0-61.067C17.105,27.446,29.01,27.131,30.339,32.098z"/>
	</g>
	<g>
		<path style="stroke:#FFFFFF;stroke-width:2;stroke-miterlimit:10;" d="M30.339,32.098c3.462,12.94,3.462,48.634,0,61.067
			c-1.38,4.953-14.75,5.097-15.425,0c-1.688-12.762-6.093-48.127,0-61.067C17.105,27.446,29.01,27.131,30.339,32.098z"/>
	</g>
</g>
<path style="fill-rule:evenodd;clip-rule:evenodd;stroke:#FFFFFF;stroke-width:2;stroke-miterlimit:10;" d="M32.96,14.801
	c0,5.342-3.398,9.5-7.592,9.5h-4.672c-4.193,0-7.593-4.158-7.593-9.5l0,0c0-5.342,3.399-9.5,7.593-9.5h4.672
	C29.562,5.301,32.96,9.459,32.96,14.801L32.96,14.801z"/>
<ellipse cx="68.164" cy="63.545" rx="11.37" ry="11.723"/>
</svg>
