<?xml version="1.0" encoding="utf-8"?>
<!-- Generator: Adobe Illustrator 23.0.4, SVG Export Plug-In . SVG Version: 6.00 Build 0)  -->
<svg version="1.1" id="Layer_1" xmlns="http://www.w3.org/2000/svg" xmlns:xlink="http://www.w3.org/1999/xlink" x="0px" y="0px"
	 width="30" height="30" viewBox="0 0 31 30" style="enable-background:new 0 0 31 30;" xml:space="preserve">
<style type="text/css">
	.st0{fill-rule:evenodd;clip-rule:evenodd;fill:#FFFFFF;}
</style>
<path class="st0" d="M15.4,0C6.9,0,0,6.9,0,15.4C0,22.2,4.4,27.9,10.5,30c0.8,0.1,1.1-0.3,1.1-0.7c0-0.4,0-1.6,0-2.9
	c-4.3,0.9-5.2-1.8-5.2-1.8c-0.7-1.8-1.7-2.3-1.7-2.3c-1.4-1,0.1-0.9,0.1-0.9C6.3,21.5,7.1,23,7.1,23c1.4,2.4,3.6,1.7,4.5,1.3
	c0.1-1,0.5-1.7,1-2.1c-3.4-0.4-7-1.7-7-7.6c0-1.7,0.6-3.1,1.6-4.1c-0.2-0.4-0.7-2,0.1-4.1c0,0,1.3-0.4,4.2,1.6
	c1.2-0.3,2.5-0.5,3.8-0.5c1.3,0,2.6,0.2,3.9,0.5c2.9-2,4.2-1.6,4.2-1.6c0.8,2.1,0.3,3.7,0.2,4.1c1,1.1,1.6,2.4,1.6,4.1
	c0,5.9-3.6,7.2-7,7.6c0.6,0.5,1,1.4,1,2.8c0,2.1,0,3.7,0,4.2c0,0.4,0.3,0.9,1.1,0.7c6.1-2,10.5-7.8,10.5-14.6
	C30.8,6.9,23.9,0,15.4,0z"/>
<path class="st0" d="M5.8,22.1c0,0.1-0.2,0.1-0.3,0c-0.1-0.1-0.2-0.2-0.1-0.2c0-0.1,0.2-0.1,0.3,0C5.8,21.9,5.9,22,5.8,22.1z"/>
<path class="st0" d="M6.4,22.8c-0.1,0.1-0.2,0-0.3-0.1c-0.1-0.1-0.1-0.3,0-0.3c0.1-0.1,0.2,0,0.3,0.1C6.5,22.6,6.5,22.7,6.4,22.8z"
	/>
<path class="st0" d="M7.1,23.7c-0.1,0.1-0.2,0-0.3-0.1c-0.1-0.1-0.1-0.3,0-0.4c0.1-0.1,0.2,0,0.3,0.1C7.1,23.4,7.1,23.6,7.1,23.7z"
	/>
<path class="st0" d="M7.9,24.5c-0.1,0.1-0.3,0.1-0.4-0.1c-0.1-0.1-0.2-0.3-0.1-0.4C7.5,24,7.7,24,7.8,24.1C7.9,24.2,8,24.4,7.9,24.5
	z"/>
<path class="st0" d="M9,25c0,0.1-0.2,0.2-0.4,0.1c-0.2-0.1-0.3-0.2-0.3-0.3c0-0.1,0.2-0.2,0.4-0.1C9,24.8,9.1,24.9,9,25z"/>
<path class="st0" d="M10.3,25.1c0,0.1-0.1,0.2-0.3,0.2c-0.2,0-0.3-0.1-0.3-0.2c0-0.1,0.1-0.2,0.3-0.2C10.1,24.9,10.3,25,10.3,25.1z"
	/>
<path class="st0" d="M11.5,24.9c0,0.1-0.1,0.3-0.3,0.3c-0.2,0-0.3,0-0.4-0.2c0-0.1,0.1-0.3,0.3-0.3C11.3,24.7,11.4,24.8,11.5,24.9z"
	/>
</svg>
