<?xml version="1.0" encoding="utf-8"?>
<!-- Generator: Adobe Illustrator 23.0.4, SVG Export Plug-In . SVG Version: 6.00 Build 0)  -->
<svg version="1.1" id="Layer_1" xmlns="http://www.w3.org/2000/svg" xmlns:xlink="http://www.w3.org/1999/xlink" x="0px" y="0px"
	 width="30" height="30" viewBox="0 0 30 30" style="enable-background:new 0 0 30 30;" xml:space="preserve">
<style type="text/css">
	.st0{fill-rule:evenodd;clip-rule:evenodd;fill:#FFFFFF;}
</style>
<path class="st0" d="M15,0C6.7,0,0,6.7,0,15c0,8.3,6.7,15,15,15c8.3,0,15-6.7,15-15C30,6.7,23.3,0,15,0z M7.2,12.4h3.4v10.2H7.2
	V12.4z M10.8,9.3c0-1-0.7-1.8-1.9-1.8C7.8,7.5,7,8.3,7,9.3c0,1,0.7,1.8,1.9,1.8h0C10.1,11,10.8,10.2,10.8,9.3z M18.9,12.2
	c2.2,0,3.9,1.5,3.9,4.6l0,5.9h-3.4v-5.5c0-1.4-0.5-2.3-1.7-2.3c-0.9,0-1.5,0.6-1.7,1.2c-0.1,0.2-0.1,0.5-0.1,0.8v5.7h-3.4
	c0,0,0-9.3,0-10.2h3.4v1.4C16.3,13.2,17.1,12.2,18.9,12.2z"/>
</svg>
